<mxfile host="app.diagrams.net" agent="Mozilla/5.0 (X11; Linux x86_64; rv:136.0) Gecko/20100101 Firefox/136.0" version="26.2.13">
  <diagram name="Seite-1" id="4sdjlLzygc979qHXJ2A0">
    <mxGraphModel dx="985" dy="540" grid="1" gridSize="10" guides="1" tooltips="1" connect="1" arrows="1" fold="1" page="1" pageScale="1" pageWidth="1169" pageHeight="827" math="0" shadow="0">
      <root>
        <mxCell id="0" />
        <mxCell id="1" parent="0" />
        <mxCell id="849fYaTX_eS8fPJYgH0S-19" value="HQ" style="whiteSpace=wrap;html=1;aspect=fixed;strokeColor=#CC0000;" parent="1" vertex="1">
          <mxGeometry x="725" y="400" width="130" height="130" as="geometry" />
        </mxCell>
        <mxCell id="x6NdC83CHwa4mktvV2ec-4" style="edgeStyle=orthogonalEdgeStyle;rounded=0;orthogonalLoop=1;jettySize=auto;html=1;curved=1;endArrow=classic;startFill=0;fillColor=#f8cecc;strokeColor=#b85450;exitX=1;exitY=0.3333333333333333;exitDx=0;exitDy=0;exitPerimeter=0;entryX=0.095;entryY=0.77;entryDx=0;entryDy=0;entryPerimeter=0;endFill=1;dashed=1;" parent="1" source="849fYaTX_eS8fPJYgH0S-6" target="849fYaTX_eS8fPJYgH0S-16" edge="1">
          <mxGeometry relative="1" as="geometry" />
        </mxCell>
        <mxCell id="849fYaTX_eS8fPJYgH0S-6" value="Player 2" style="shape=umlActor;verticalLabelPosition=bottom;verticalAlign=top;html=1;outlineConnect=0;strokeColor=#CC0000;" parent="1" vertex="1">
          <mxGeometry x="655" y="414" width="30" height="60" as="geometry" />
        </mxCell>
        <mxCell id="849fYaTX_eS8fPJYgH0S-12" value="&lt;span style=&quot;color: rgb(51, 51, 255);&quot;&gt;Team Blue&lt;/span&gt;" style="text;html=1;align=center;verticalAlign=middle;whiteSpace=wrap;rounded=0;" parent="1" vertex="1">
          <mxGeometry x="210" y="420" width="60" height="30" as="geometry" />
        </mxCell>
        <mxCell id="849fYaTX_eS8fPJYgH0S-13" value="&lt;span style=&quot;color: rgb(204, 0, 0);&quot;&gt;Team Red&lt;/span&gt;" style="text;html=1;align=center;verticalAlign=middle;whiteSpace=wrap;rounded=0;" parent="1" vertex="1">
          <mxGeometry x="725" y="359" width="60" height="30" as="geometry" />
        </mxCell>
        <mxCell id="849fYaTX_eS8fPJYgH0S-18" value="HQ" style="whiteSpace=wrap;html=1;aspect=fixed;strokeColor=#3333FF;" parent="1" vertex="1">
          <mxGeometry x="210" y="450" width="80" height="80" as="geometry" />
        </mxCell>
        <mxCell id="849fYaTX_eS8fPJYgH0S-20" value="Jail" style="whiteSpace=wrap;html=1;aspect=fixed;strokeColor=#3333FF;" parent="1" vertex="1">
          <mxGeometry x="210" y="560" width="80" height="80" as="geometry" />
        </mxCell>
        <mxCell id="849fYaTX_eS8fPJYgH0S-21" value="Jail" style="whiteSpace=wrap;html=1;aspect=fixed;strokeColor=#CC0000;" parent="1" vertex="1">
          <mxGeometry x="725" y="550" width="80" height="80" as="geometry" />
        </mxCell>
        <mxCell id="849fYaTX_eS8fPJYgH0S-16" value="" style="html=1;verticalLabelPosition=bottom;align=center;labelBackgroundColor=#ffffff;verticalAlign=top;strokeWidth=2;strokeColor=#3333FF;shadow=0;dashed=0;shape=mxgraph.ios7.icons.flag;" parent="1" vertex="1">
          <mxGeometry x="740" y="419" width="30" height="50" as="geometry" />
        </mxCell>
        <mxCell id="849fYaTX_eS8fPJYgH0S-23" value="" style="verticalLabelPosition=bottom;verticalAlign=top;html=1;shadow=0;dashed=0;strokeWidth=1;shape=mxgraph.android.phone2;strokeColor=#c0c0c0;" parent="1" vertex="1">
          <mxGeometry x="640" y="413" width="15" height="30" as="geometry" />
        </mxCell>
        <mxCell id="849fYaTX_eS8fPJYgH0S-30" value="Free Player 2 brings the blue team&#39;s flag&lt;br&gt;to the own HQ.&lt;br&gt;&lt;br&gt;Within 10s the player scans both QR-Codes &lt;br&gt;of the flag and HQ to verify the success. &lt;br&gt;&lt;br&gt;Team red has won!&lt;div&gt;&lt;br&gt;&lt;/div&gt;" style="edgeLabel;html=1;align=center;verticalAlign=middle;resizable=0;points=[];" parent="1" vertex="1" connectable="0">
          <mxGeometry x="510.00493941714956" y="464.9974611924496" as="geometry" />
        </mxCell>
        <mxCell id="dxFgPkeivX8VVtLk71lp-3" value="Player 3" style="shape=umlActor;verticalLabelPosition=bottom;verticalAlign=top;html=1;outlineConnect=0;strokeColor=#3333FF;" parent="1" vertex="1">
          <mxGeometry x="525" y="180" width="30" height="60" as="geometry" />
        </mxCell>
        <mxCell id="dxFgPkeivX8VVtLk71lp-5" value="" style="verticalLabelPosition=bottom;verticalAlign=top;html=1;shadow=0;dashed=0;strokeWidth=1;shape=mxgraph.android.phone2;strokeColor=#c0c0c0;" parent="1" vertex="1">
          <mxGeometry x="510" y="180" width="15" height="30" as="geometry" />
        </mxCell>
        <mxCell id="849fYaTX_eS8fPJYgH0S-17" value="" style="html=1;verticalLabelPosition=bottom;align=center;labelBackgroundColor=#ffffff;verticalAlign=top;strokeWidth=2;strokeColor=#CC0000;shadow=0;dashed=0;shape=mxgraph.ios7.icons.flag;" parent="1" vertex="1">
          <mxGeometry x="845" y="359" width="30" height="50" as="geometry" />
        </mxCell>
        <mxCell id="sqHOk89upO2oKN9Sqf8d-2" value="" style="shape=image;html=1;verticalAlign=top;verticalLabelPosition=bottom;labelBackgroundColor=#ffffff;imageAspect=0;aspect=fixed;image=https://cdn1.iconfinder.com/data/icons/iconoir-vol-3/24/qr-code-128.png" vertex="1" parent="1">
          <mxGeometry x="740" y="424" width="14" height="14" as="geometry" />
        </mxCell>
        <mxCell id="sqHOk89upO2oKN9Sqf8d-3" value="" style="shape=image;html=1;verticalAlign=top;verticalLabelPosition=bottom;labelBackgroundColor=#ffffff;imageAspect=0;aspect=fixed;image=https://cdn1.iconfinder.com/data/icons/ionicons-outline-vol-2/512/qr-code-outline-128.png" vertex="1" parent="1">
          <mxGeometry x="827" y="500" width="18" height="18" as="geometry" />
        </mxCell>
      </root>
    </mxGraphModel>
  </diagram>
</mxfile>
